<?xml version="1.0" standalone="no"?><!DOCTYPE svg PUBLIC "-//W3C//DTD SVG 1.1//EN" "http://www.w3.org/Graphics/SVG/1.1/DTD/svg11.dtd"><svg t="1550586690268" class="icon" style="" viewBox="0 0 1024 1024" version="1.1" xmlns="http://www.w3.org/2000/svg" p-id="2476" xmlns:xlink="http://www.w3.org/1999/xlink" width="200" height="200"><defs><style type="text/css"></style></defs><path d="M646.8 871.8c-51.4 0-102.9 0.1-154.3-0.1-6.7 0-17.1 2.6-16.8-7.8 0.2-9.7 10.4-7.8 17.3-7.8 102.9-0.1 205.8-0.1 308.7 0 6.1 0 15.4-2.1 15.8 7.1 0.4 10.6-9.5 8.5-16.2 8.5-51.6 0.1-103 0.1-154.5 0.1zM774 831.5c-26.3 0-52.5 0.1-78.8-0.1-6.3 0-15.4 1.3-15.5-7.6-0.1-8.9 8.9-7.9 15.3-7.9 53.2-0.1 106.3-0.1 159.5 0.1 6.2 0 15.1-1.7 14.5 8.3-0.5 8.7-9 6-14.4 6.1-26.9 0.3-53.8 0.1-80.7 0.1 0.1 0.3 0.1 0.6 0.1 1z" fill="#E5BB54" p-id="2477"></path><path d="M861.3 771.3c-4.7 0-9-3-10.6-7.5-9.4-26.5-24.8-42-50.1-50.5-4.3-1.4-7.3-5.4-7.6-9.9-0.3-4.5 2.2-8.8 6.3-10.8 1.5-0.7 2.9-1.4 4.4-2.1 10.8-5.2 20.2-9.7 27.2-16.6 7.4-7.3 13.1-16.3 19.5-31 1.7-3.8 5.4-6.4 9.6-6.7 4.2-0.3 8.2 1.8 10.3 5.5 19.1 32.1 19.1 32.1 52.1 51.7 3.7 2.2 5.9 6.4 5.4 10.7-0.4 4.3-3.3 8-7.4 9.5-24.3 8.7-39.7 24.7-48.5 50.2-1.5 4.4-5.8 7.4-10.6 7.5zM830 702.2c12.9 7.8 23.3 18.2 31.3 31.4 8.1-13.3 18.6-23.9 31.7-31.8-15.7-9.9-21.8-16-31.5-31.3-4 6.7-8.8 13.3-14.9 19.3-5.1 5-10.7 8.9-16.6 12.4z" fill="#EFD080" p-id="2478"></path><path d="M145.8 245.1h-0.6c-12.2-0.2-24.4-5.6-33.4-15-9-9.3-14.1-21.7-13.9-33.9 0.2-12.3 5.8-24.6 15.3-33.7 9.3-8.9 21.5-13.9 33.5-13.6 25.8 0.6 47.3 22.9 47.1 48.7-0.1 12.3-5.5 24.5-14.7 33.5s-21.3 14-33.3 14z m-0.1-73.7c-5.9 0-12.1 2.7-17 7.4-5.2 5-8.3 11.5-8.4 17.9-0.1 6.3 2.6 12.8 7.6 17.9 4.9 5.1 11.4 8.1 17.6 8.2 6.3 0.1 12.9-2.7 17.9-7.5 5-4.9 7.9-11.4 8-17.7 0.1-13.6-11.6-25.7-25.2-26.1-0.2-0.1-0.4-0.1-0.5-0.1z m36.8 26.1z" fill="#EC8092" p-id="2479"></path><path d="M175.7 270.8c-1.3 6.8-5.1 11.3-11.9 11.1-6.6-0.1-11.4-4.3-11.4-11.1 0-7.5 4.7-12.1 12.5-11.7 7.2 0.4 9.8 5.6 10.8 11.7z" fill="#986242" p-id="2480"></path><path d="M131.8 294.9c7.7 1.6 13.5 3.9 13.5 12.4 0 7.8-3.4 12.1-11.5 12.6-8.4 0.5-12.2-4.5-12.9-11.5-0.7-7.9 5.3-11.1 10.9-13.5z" fill="#874F41" p-id="2481"></path><path d="M259.5 190.4h370.2c13.9 0 25.3 11.4 25.3 25.3V262c0 0.7-0.6 1.2-1.2 1.2H234.2v-47.5c0-13.9 11.4-25.3 25.3-25.3z" fill="#EFD080" p-id="2482"></path><path d="M652.7 278.1H234.2c-8.3 0-14.9-6.7-14.9-14.9v-25.5c0-34.3 27.9-62.2 62.2-62.2h326.3c34.3 0 62.2 27.9 62.2 62.2v23.2c-0.1 9.5-7.8 17.2-17.3 17.2z m-403.5-29.8H640v-10.6c0-17.8-14.5-32.3-32.3-32.3H281.5c-17.8 0-32.3 14.5-32.3 32.3v10.6z" fill="#83394A" p-id="2483"></path><path d="M166.5 396.2h394.7l88.1-133h-406z" fill="#FFFDF4" p-id="2484"></path><path d="M561.2 411.2H166.5c-5.3 0-10.3-2.8-12.9-7.5-2.7-4.6-2.7-10.3 0-14.9l76.8-133c2.7-4.6 7.6-7.5 12.9-7.5h406.1c5.5 0 10.6 3 13.2 7.9 2.6 4.8 2.3 10.7-0.7 15.3l-88.1 133c-2.9 4.2-7.6 6.7-12.6 6.7z m-368.8-29.9h360.8l68.3-103.2H251.9l-59.5 103.2z" fill="#83394A" p-id="2485"></path><path d="M170.7 783.3l-4.2-387.1h394.7l0.2 387.1z" fill="#FFFDF4" p-id="2486"></path><path d="M561.4 798.2H170.7c-8.2 0-14.9-6.6-14.9-14.8l-4.2-387c0-4 1.5-7.8 4.3-10.7 2.8-2.8 6.6-4.4 10.6-4.4h394.7c8.2 0 14.9 6.7 14.9 14.9l0.2 387c0 4-1.6 7.8-4.4 10.6-2.7 2.9-6.5 4.4-10.5 4.4z m-375.9-29.9h361l-0.2-357.2H181.6l3.9 357.2z" fill="#83394A" p-id="2487"></path><path d="M752.5 396.2v387.1H561.4l-0.2-387.1 88.1-133z" fill="#9ECAD1" p-id="2488"></path><path d="M752.5 798.2H561.4c-8.2 0-14.9-6.7-14.9-14.9l-0.2-387c0-2.9 0.9-5.8 2.5-8.3l88.1-133c2.7-4 7.1-6.5 11.9-6.7 4.8-0.2 9.4 2 12.4 5.8l103.1 133c2 2.6 3.1 5.8 3.1 9.2v387c0 8.2-6.7 14.9-14.9 14.9z m-176.2-29.9h161.2v-367l-87.2-112.5-74.1 111.9 0.1 367.6zM271.8 364.1c8.1-20.1 17.5-39.7 28-58.7-5.8-1.6-11.6-3.1-17.4-4.7 1.1 20.7 2.1 41.4 3.2 62.2 0.5 9.3 12.3 12.6 17.4 4.7 13.3-20.5 25.2-41.7 35.7-63.7-5.8-1.6-11.6-3.1-17.4-4.7l7.8 65.4c1.4 11.8 20.1 11.9 18.7 0l-7.8-65.4c-1-8.1-12.9-14.1-17.4-4.7-10.5 22-22.4 43.3-35.7 63.7 5.8 1.6 11.6 3.1 17.4 4.7-1.1-20.7-2.1-41.4-3.2-62.2-0.5-8.9-12.7-13.2-17.4-4.7-11.3 20.4-21.2 41.5-29.9 63.1-4.5 11.2 13.5 16 18 5zM421.3 291.9c-5.7 22.5-10.6 45.2-14.8 68.1-1.1 5.9 2.5 11.8 9 11.8 11.6 0 23.2 0.1 34.8 0.2 12 0.2 12-18.5 0-18.7-11.6-0.2-23.2-0.3-34.8-0.2 3 3.9 6 7.9 9 11.8 4.2-22.9 9.1-45.5 14.8-68.1 3-11.6-15-16.6-18-4.9zM483.1 291.2c-7.4 23-13.5 46.3-18.2 70-2.3 11.7 15.6 16.8 18 5 4.7-23.7 10.8-47 18.2-70 3.7-11.5-14.4-16.4-18-5z" fill="#83394A" p-id="2489"></path><path d="M510.6 299.6c-12.6 9.7-24.9 19.9-36.7 30.6-4.3 3.9-3.3 12 1.9 14.7 12.4 6.3 25.3 11.1 38.8 14.1 11.7 2.6 16.7-15.4 5-18-12-2.7-23.4-6.6-34.4-12.2 0.6 4.9 1.3 9.8 1.9 14.7 10.6-9.6 21.5-18.9 32.9-27.7 9.4-7.3 0.1-23.5-9.4-16.2zM369.4 311.2h19c12 0 12-18.7 0-18.7h-19c-12.1 0.1-12.1 18.7 0 18.7z" fill="#83394A" p-id="2490"></path><path d="M367.3 302c-3.5 20-5.6 40.1-6.3 60.3-0.4 12 18.3 12 18.7 0 0.6-18.6 2.4-37 5.6-55.3 2.1-11.8-15.9-16.8-18-5z" fill="#83394A" p-id="2491"></path><path d="M360.3 372.5h22.4c12 0 12-18.7 0-18.7h-22.4c-12 0-12 18.7 0 18.7z" fill="#83394A" p-id="2492"></path><path d="M213.4 521.4a146.9 76 0 1 0 293.8 0 146.9 76 0 1 0-293.8 0Z" fill="#FFEBC0" p-id="2493"></path><path d="M600.6 432.8h116.5v246.8H600.6z" fill="#FFFDF4" p-id="2494"></path></svg>